<svg width="6" height="10" viewBox="0 0 6 10" fill="none" xmlns="http://www.w3.org/2000/svg">
<path d="M2.17215 0.00012207H4.70322C5.0548 0.00012207 5.35358 0.132713 5.5997 0.397819C5.8457 0.662975 5.96875 0.984924 5.96875 1.36379V4.09103C5.96875 4.46987 5.84577 4.79177 5.5997 5.05687C5.3536 5.32195 5.05473 5.45459 4.70322 5.45459H3.22679C3.05109 5.45459 2.90165 5.52091 2.7786 5.65345C2.65555 5.78592 2.59405 5.94699 2.59405 6.13648V6.36362C2.59405 6.86555 2.75886 7.29392 3.08839 7.6491C3.41795 8.00411 3.81558 8.18168 4.28144 8.18168H4.70322C4.81754 8.18168 4.91637 8.22678 4.9999 8.31668C5.08335 8.40659 5.12512 8.51316 5.12512 8.63627V9.54547C5.12512 9.66839 5.08335 9.77516 4.9999 9.86508C4.9163 9.95496 4.81756 10.0001 4.70322 10.0001H4.28141C3.82438 10.0001 3.38826 9.90406 2.97299 9.71237C2.55774 9.52065 2.19854 9.26134 1.89533 8.93461C1.59219 8.60786 1.35158 8.22089 1.17364 7.77341C0.995712 7.32596 0.906715 6.85605 0.906715 6.36365V1.36369C0.906715 0.984825 1.02976 0.662901 1.27579 0.397794C1.52182 0.132688 1.82067 0.00012207 2.17215 0.00012207Z" fill="#F6762C"/>
</svg>
